<?xml version="1.0" encoding="utf-8"?>
<!-- Generator: Adobe Illustrator 16.0.2, SVG Export Plug-In . SVG Version: 6.00 Build 0)  -->
<!DOCTYPE svg PUBLIC "-//W3C//DTD SVG 1.1//EN" "http://www.w3.org/Graphics/SVG/1.1/DTD/svg11.dtd">
<svg version="1.1" id="Layer_1" xmlns="http://www.w3.org/2000/svg" xmlns:xlink="http://www.w3.org/1999/xlink" x="0px" y="0px"
	 width="110px" height="37px" viewBox="0 0 110 37" enable-background="new 0 0 110 37" xml:space="preserve">
<g>
	<path fill="#2C6EE5" d="M9.262,22.721V2.188h7.157c2.586,0,4.604,0.472,6.055,1.417c1.45,0.945,2.176,2.353,2.176,4.224
		c0,0.978-0.234,1.847-0.702,2.609c-0.467,0.761-1.188,1.335-2.161,1.72c1.221,0.273,2.123,0.82,2.705,1.643
		s0.874,1.769,0.874,2.841c0,2.003-0.683,3.517-2.047,4.541s-3.321,1.537-5.869,1.537H9.262z M14.114,10.748h2.405
		c1.098-0.019,1.918-0.228,2.462-0.627c0.544-0.399,0.816-0.985,0.816-1.756c0-0.874-0.277-1.511-0.831-1.911
		c-0.553-0.399-1.403-0.599-2.548-0.599h-2.305V10.748z M14.114,13.907v5.147h3.335c1.031,0,1.804-0.2,2.319-0.6
		s0.773-1.013,0.773-1.841c0-0.893-0.222-1.567-0.666-2.023c-0.444-0.456-1.162-0.684-2.154-0.684H14.114z"/>
	<path fill="#2C6EE5" d="M32.938,14.852v7.869h-4.853V2.188h8.016c2.414,0,4.328,0.55,5.74,1.65c1.412,1.1,2.119,2.604,2.119,4.513
		c0,1.063-0.284,1.974-0.852,2.735c-0.568,0.762-1.405,1.382-2.512,1.862c1.279,0.357,2.197,0.952,2.756,1.784
		c0.558,0.833,0.837,1.869,0.837,3.11v1.297c0,0.536,0.081,1.147,0.243,1.833c0.162,0.687,0.444,1.176,0.845,1.467v0.282h-4.981
		c-0.382-0.291-0.632-0.809-0.751-1.551c-0.12-0.743-0.179-1.43-0.179-2.06v-1.24c0-0.979-0.263-1.726-0.787-2.243
		c-0.525-0.517-1.293-0.775-2.305-0.775H32.938z M32.938,11.186h3.192c0.973,0,1.718-0.219,2.233-0.656
		c0.515-0.438,0.773-1.065,0.773-1.883c0-0.836-0.265-1.511-0.794-2.023s-1.276-0.769-2.24-0.769h-3.164V11.186z"/>
	<path fill="#2C6EE5" d="M52.592,22.721h-4.824V2.188h4.824V22.721z"/>
	<path fill="#2C6EE5" d="M64,16.989c0-0.495-0.217-0.937-0.651-1.326c-0.434-0.39-1.224-0.738-2.369-1.047
		c-1.804-0.458-3.163-1.169-4.079-2.134c-0.916-0.964-1.375-2.281-1.375-3.95c0-1.768,0.573-3.268,1.719-4.498
		c1.145-1.23,2.695-1.846,4.652-1.846c2.061,0,3.702,0.597,4.924,1.79c1.222,1.194,1.804,2.736,1.746,4.628l-0.028,0.111h-4.695
		c0-0.791-0.155-1.391-0.465-1.799c-0.311-0.408-0.809-0.612-1.496-0.612c-0.506,0-0.931,0.179-1.274,0.538
		c-0.344,0.358-0.516,0.816-0.516,1.373c0,0.532,0.199,0.982,0.595,1.354s1.195,0.705,2.397,1.002c1.89,0.481,3.29,1.202,4.201,2.16
		c0.911,0.958,1.367,2.315,1.367,4.071c0,1.805-0.618,3.292-1.854,4.461c-1.236,1.168-2.87,1.752-4.902,1.752
		c-2.109,0-3.777-0.692-5.004-2.077c-1.226-1.384-1.81-2.931-1.753-4.637l0.029-0.111h4.38c0.019,0.953,0.24,1.639,0.666,2.059
		c0.424,0.42,1.027,0.631,1.811,0.631c0.648,0,1.14-0.163,1.474-0.492C63.833,18.062,64,17.596,64,16.989z"/>
	<path fill="#2C6EE5" d="M80.832,22.609c-0.133-0.322-0.255-0.681-0.364-1.076c-0.11-0.396-0.203-0.804-0.279-1.224
		c-0.458,0.828-1.012,1.487-1.66,1.975c-0.649,0.488-1.437,0.732-2.362,0.732c-1.47,0-2.665-0.55-3.586-1.65
		s-1.381-2.564-1.381-4.396c0-1.99,0.574-3.526,1.725-4.609c1.149-1.082,2.898-1.623,5.246-1.623h1.761V9.311
		c0-0.854-0.155-1.508-0.465-1.966c-0.311-0.458-0.79-0.686-1.438-0.686c-0.554,0-0.967,0.17-1.238,0.51
		c-0.272,0.34-0.408,0.869-0.408,1.586L71.7,8.736l-0.029-0.111c-0.066-1.83,0.521-3.36,1.761-4.59
		c1.24-1.23,2.882-1.846,4.925-1.846c1.908,0,3.457,0.619,4.645,1.855c1.188,1.236,1.782,3.004,1.782,5.304v7.566
		c0,1.077,0.069,2.072,0.208,2.986c0.138,0.916,0.346,1.824,0.622,2.727L80.832,22.609z M77.641,18.547
		c0.477,0,0.916-0.123,1.316-0.371c0.401-0.247,0.726-0.567,0.974-0.965v-3.134h-1.718c-0.764,0-1.319,0.242-1.668,0.723
		c-0.348,0.483-0.522,1.094-0.522,1.836c0,0.569,0.15,1.029,0.451,1.383C76.774,18.371,77.163,18.547,77.641,18.547z"/>
	<path fill="#2C6EE5" d="M96.547,16.989c0-0.495-0.217-0.937-0.651-1.326c-0.434-0.39-1.224-0.738-2.369-1.047
		c-1.803-0.458-3.163-1.169-4.079-2.134c-0.916-0.964-1.374-2.281-1.374-3.95c0-1.768,0.572-3.268,1.718-4.498
		c1.145-1.23,2.695-1.846,4.652-1.846c2.061,0,3.702,0.597,4.924,1.79c1.222,1.194,1.804,2.736,1.746,4.628l-0.028,0.111H96.39
		c0-0.791-0.155-1.391-0.465-1.799c-0.311-0.408-0.809-0.612-1.496-0.612c-0.506,0-0.931,0.179-1.274,0.538
		C92.812,7.203,92.64,7.66,92.64,8.217c0,0.532,0.197,0.982,0.594,1.354c0.396,0.371,1.195,0.705,2.397,1.002
		c1.89,0.481,3.29,1.202,4.201,2.16c0.911,0.958,1.367,2.315,1.367,4.071c0,1.805-0.618,3.292-1.854,4.461
		c-1.236,1.168-2.87,1.752-4.902,1.752c-2.109,0-3.777-0.692-5.003-2.077c-1.227-1.384-1.812-2.931-1.754-4.637l0.028-0.111h4.381
		c0.019,0.953,0.24,1.639,0.665,2.059s1.028,0.631,1.812,0.631c0.648,0,1.14-0.163,1.474-0.492
		C96.38,18.062,96.547,17.596,96.547,16.989z"/>
	<rect x="5.25" y="25.391" fill="#2C6EE5" width="97.688" height="0.234"/>
</g>
<g>
	<path fill="#174B96" stroke="#3762DB" stroke-width="0.25" stroke-miterlimit="10" d="M11.045,32.709H8.381v2.739H6.833v-6.806
		h4.679v1.216h-3.13v1.636h2.664V32.709z"/>
	<path fill="#174B96" stroke="#3762DB" stroke-width="0.25" stroke-miterlimit="10" d="M14.814,35.443
		c-0.043-0.081-0.082-0.171-0.117-0.271s-0.065-0.203-0.089-0.309c-0.146,0.209-0.323,0.374-0.53,0.497s-0.458,0.186-0.754,0.186
		c-0.469,0-0.851-0.139-1.145-0.416s-0.441-0.647-0.441-1.108c0-0.502,0.184-0.889,0.551-1.161c0.367-0.272,0.925-0.409,1.674-0.409
		h0.562v-0.36c0-0.215-0.049-0.38-0.148-0.495s-0.252-0.173-0.459-0.173c-0.177,0-0.309,0.043-0.396,0.129
		c-0.087,0.085-0.13,0.219-0.13,0.399l-1.494-0.005l-0.009-0.028c-0.021-0.461,0.166-0.847,0.562-1.156
		c0.396-0.311,0.92-0.465,1.572-0.465c0.609,0,1.104,0.155,1.482,0.467c0.379,0.312,0.569,0.758,0.569,1.337v1.907
		c0,0.271,0.022,0.521,0.066,0.752c0.044,0.231,0.11,0.46,0.199,0.688L14.814,35.443z M13.795,34.42c0.152,0,0.292-0.031,0.42-0.094
		s0.231-0.143,0.311-0.243v-0.789h-0.548c-0.244,0-0.421,0.061-0.532,0.182c-0.111,0.122-0.167,0.276-0.167,0.463
		c0,0.144,0.048,0.26,0.144,0.349C13.519,34.376,13.643,34.42,13.795,34.42z"/>
	<path fill="#174B96" stroke="#3762DB" stroke-width="0.25" stroke-miterlimit="10" d="M19.045,34.331
		c0.208,0,0.361-0.058,0.462-0.173c0.1-0.115,0.15-0.285,0.15-0.51h1.412l0.009,0.028c0.012,0.552-0.174,1.001-0.56,1.349
		s-0.876,0.521-1.474,0.521c-0.749,0-1.327-0.239-1.734-0.716s-0.61-1.095-0.61-1.855v-0.107c0-0.757,0.203-1.375,0.608-1.854
		c0.405-0.479,0.979-0.717,1.722-0.717c0.627,0,1.129,0.179,1.503,0.537s0.556,0.846,0.543,1.463l-0.009,0.028h-1.412
		c0-0.24-0.052-0.436-0.155-0.587s-0.26-0.227-0.471-0.227c-0.292,0-0.497,0.123-0.614,0.369s-0.176,0.575-0.176,0.986v0.107
		c0,0.424,0.059,0.756,0.176,0.996C18.535,34.211,18.744,34.331,19.045,34.331z"/>
	<path fill="#174B96" stroke="#3762DB" stroke-width="0.25" stroke-miterlimit="10" d="M23.541,29.134v1.257h0.836v1.094h-0.836
		v2.318c0,0.181,0.036,0.312,0.107,0.391c0.072,0.079,0.168,0.119,0.29,0.119c0.098,0,0.174-0.003,0.231-0.01
		c0.056-0.006,0.128-0.019,0.217-0.037l0.11,1.169c-0.17,0.04-0.324,0.069-0.461,0.086c-0.137,0.018-0.299,0.026-0.484,0.026
		c-0.509,0-0.894-0.139-1.156-0.416c-0.262-0.277-0.393-0.717-0.393-1.318v-2.328h-0.694v-1.094h0.694v-1.257H23.541z"/>
	<path fill="#174B96" stroke="#3762DB" stroke-width="0.25" stroke-miterlimit="10" d="M28.069,34.85
		c-0.158,0.225-0.353,0.396-0.583,0.517s-0.49,0.181-0.779,0.181c-0.512,0-0.913-0.169-1.204-0.505
		c-0.291-0.337-0.437-0.858-0.437-1.566v-3.085h1.54v3.095c0,0.283,0.052,0.495,0.158,0.636c0.105,0.14,0.255,0.21,0.45,0.21
		c0.165,0,0.309-0.023,0.434-0.07s0.231-0.116,0.32-0.21v-3.66h1.544v5.058h-1.348L28.069,34.85z"/>
	<path fill="#174B96" stroke="#3762DB" stroke-width="0.25" stroke-miterlimit="10" d="M33.155,31.784l-0.562-0.005
		c-0.177,0-0.322,0.03-0.434,0.091c-0.113,0.061-0.197,0.147-0.251,0.26v3.318h-1.544v-5.058h1.453l0.055,0.743
		c0.104-0.265,0.241-0.471,0.411-0.617c0.171-0.146,0.37-0.219,0.599-0.219c0.073,0,0.148,0.005,0.224,0.016s0.143,0.024,0.201,0.04
		L33.155,31.784z"/>
	<path fill="#174B96" stroke="#3762DB" stroke-width="0.25" stroke-miterlimit="10" d="M36.572,35.443
		c-0.043-0.081-0.082-0.171-0.117-0.271s-0.065-0.203-0.089-0.309c-0.146,0.209-0.323,0.374-0.53,0.497s-0.458,0.186-0.754,0.186
		c-0.469,0-0.851-0.139-1.145-0.416s-0.441-0.647-0.441-1.108c0-0.502,0.184-0.889,0.551-1.161c0.367-0.272,0.925-0.409,1.674-0.409
		h0.562v-0.36c0-0.215-0.049-0.38-0.148-0.495s-0.252-0.173-0.459-0.173c-0.177,0-0.309,0.043-0.396,0.129
		c-0.087,0.085-0.13,0.219-0.13,0.399l-1.494-0.005l-0.009-0.028c-0.021-0.461,0.166-0.847,0.562-1.156
		c0.396-0.311,0.92-0.465,1.572-0.465c0.609,0,1.104,0.155,1.482,0.467c0.379,0.312,0.569,0.758,0.569,1.337v1.907
		c0,0.271,0.022,0.521,0.066,0.752c0.044,0.231,0.11,0.46,0.199,0.688L36.572,35.443z M35.553,34.42c0.152,0,0.292-0.031,0.42-0.094
		s0.231-0.143,0.311-0.243v-0.789h-0.548c-0.244,0-0.421,0.061-0.532,0.182c-0.111,0.122-0.167,0.276-0.167,0.463
		c0,0.144,0.048,0.26,0.144,0.349C35.277,34.376,35.401,34.42,35.553,34.42z"/>
	<path fill="#174B96" stroke="#3762DB" stroke-width="0.25" stroke-miterlimit="10" d="M40.803,34.331
		c0.208,0,0.361-0.058,0.462-0.173c0.1-0.115,0.15-0.285,0.15-0.51h1.412l0.009,0.028c0.012,0.552-0.174,1.001-0.56,1.349
		s-0.876,0.521-1.474,0.521c-0.749,0-1.327-0.239-1.734-0.716s-0.61-1.095-0.61-1.855v-0.107c0-0.757,0.203-1.375,0.608-1.854
		c0.405-0.479,0.979-0.717,1.722-0.717c0.627,0,1.129,0.179,1.503,0.537s0.556,0.846,0.543,1.463l-0.009,0.028h-1.412
		c0-0.24-0.052-0.436-0.155-0.587s-0.26-0.227-0.471-0.227c-0.292,0-0.497,0.123-0.614,0.369s-0.176,0.575-0.176,0.986v0.107
		c0,0.424,0.059,0.756,0.176,0.996C40.292,34.211,40.501,34.331,40.803,34.331z"/>
	<path fill="#174B96" stroke="#3762DB" stroke-width="0.25" stroke-miterlimit="10" d="M45.089,29.218H43.54v-1.062h1.549V29.218z
		 M45.089,35.448H43.54v-5.058h1.549V35.448z"/>
	<path fill="#174B96" stroke="#3762DB" stroke-width="0.25" stroke-miterlimit="10" d="M45.829,32.873
		c0-0.761,0.21-1.38,0.631-1.858c0.42-0.479,1.006-0.717,1.759-0.717c0.755,0,1.343,0.238,1.764,0.717s0.63,1.098,0.63,1.858v0.098
		c0,0.764-0.21,1.384-0.63,1.86s-1.005,0.716-1.754,0.716c-0.758,0-1.348-0.239-1.768-0.716c-0.42-0.477-0.631-1.097-0.631-1.86
		V32.873z M47.374,32.971c0,0.424,0.064,0.757,0.194,0.998c0.129,0.241,0.35,0.362,0.66,0.362c0.301,0,0.518-0.121,0.649-0.364
		c0.131-0.243,0.196-0.575,0.196-0.996v-0.098c0-0.411-0.065-0.741-0.196-0.989c-0.131-0.247-0.351-0.371-0.658-0.371
		c-0.305,0-0.521,0.125-0.651,0.374c-0.13,0.249-0.194,0.578-0.194,0.986V32.971z M48.356,28.414h1.59l0.009,0.027l-1.279,1.216
		h-1.261L48.356,28.414z"/>
	<path fill="#174B96" stroke="#3762DB" stroke-width="0.25" stroke-miterlimit="10" d="M52.714,30.391l0.06,0.711
		c0.162-0.253,0.361-0.449,0.599-0.592c0.237-0.142,0.502-0.212,0.795-0.212c0.484,0,0.863,0.16,1.135,0.481
		c0.273,0.32,0.409,0.831,0.409,1.532v3.137h-1.544v-3.141c0-0.29-0.059-0.495-0.176-0.615s-0.29-0.18-0.519-0.18
		c-0.144,0-0.271,0.026-0.382,0.079c-0.111,0.054-0.206,0.127-0.285,0.22v3.637h-1.54v-5.058H52.714z"/>
	<path fill="#174B96" stroke="#3762DB" stroke-width="0.25" stroke-miterlimit="10" d="M62.501,34.125h-2.097l-0.375,1.323h-1.553
		l2.146-6.806h1.658l2.152,6.806h-1.553L62.501,34.125z M60.746,32.91h1.412l-0.694-2.436h-0.027L60.746,32.91z"/>
	<path fill="#174B96" stroke="#3762DB" stroke-width="0.25" stroke-miterlimit="10" d="M66.934,34.331
		c0.207,0,0.361-0.058,0.461-0.173c0.101-0.115,0.15-0.285,0.15-0.51h1.412l0.01,0.028c0.012,0.552-0.175,1.001-0.561,1.349
		c-0.385,0.348-0.876,0.521-1.473,0.521c-0.75,0-1.328-0.239-1.734-0.716s-0.609-1.095-0.609-1.855v-0.107
		c0-0.757,0.202-1.375,0.607-1.854c0.404-0.479,0.979-0.717,1.723-0.717c0.627,0,1.129,0.179,1.503,0.537s0.556,0.846,0.544,1.463
		l-0.01,0.028h-1.412c0-0.24-0.051-0.436-0.154-0.587s-0.261-0.227-0.471-0.227c-0.293,0-0.498,0.123-0.615,0.369
		s-0.176,0.575-0.176,0.986v0.107c0,0.424,0.059,0.756,0.176,0.996C66.422,34.211,66.632,34.331,66.934,34.331z"/>
	<path fill="#174B96" stroke="#3762DB" stroke-width="0.25" stroke-miterlimit="10" d="M72.566,34.85
		c-0.158,0.225-0.352,0.396-0.582,0.517s-0.49,0.181-0.779,0.181c-0.512,0-0.912-0.169-1.203-0.505
		c-0.291-0.337-0.438-0.858-0.438-1.566v-3.085h1.541v3.095c0,0.283,0.052,0.495,0.157,0.636c0.104,0.14,0.255,0.21,0.45,0.21
		c0.164,0,0.309-0.023,0.434-0.07s0.231-0.116,0.32-0.21v-3.66h1.544v5.058h-1.348L72.566,34.85z"/>
	<path fill="#174B96" stroke="#3762DB" stroke-width="0.25" stroke-miterlimit="10" d="M77.117,35.547
		c-0.728,0-1.309-0.234-1.742-0.701c-0.435-0.468-0.651-1.054-0.651-1.758V32.91c0-0.77,0.196-1.398,0.591-1.886
		c0.395-0.488,0.959-0.73,1.693-0.727c0.67,0,1.195,0.205,1.576,0.616s0.571,0.97,0.571,1.674v0.827h-2.823l-0.01,0.028
		c0.033,0.259,0.137,0.471,0.311,0.638s0.406,0.25,0.695,0.25c0.292,0,0.525-0.023,0.701-0.07c0.175-0.047,0.396-0.128,0.664-0.243
		l0.366,0.963c-0.216,0.162-0.496,0.297-0.839,0.404C77.879,35.492,77.511,35.547,77.117,35.547z M77.008,31.513
		c-0.223,0-0.389,0.081-0.5,0.243s-0.18,0.379-0.203,0.649l0.014,0.023h1.329v-0.121c0-0.256-0.052-0.452-0.155-0.589
		C77.389,31.581,77.227,31.513,77.008,31.513z"/>
	<path fill="#174B96" stroke="#3762DB" stroke-width="0.25" stroke-miterlimit="10" d="M79.604,32.929
		c0-0.788,0.168-1.424,0.504-1.907c0.337-0.482,0.812-0.724,1.424-0.724c0.229,0,0.435,0.054,0.619,0.161
		c0.184,0.107,0.35,0.261,0.496,0.46v-2.763h1.544v7.292h-1.339l-0.109-0.622c-0.152,0.234-0.33,0.412-0.532,0.535
		s-0.433,0.186-0.688,0.186c-0.608,0-1.08-0.231-1.416-0.692c-0.335-0.461-0.502-1.07-0.502-1.827V32.929z M81.147,33.027
		c0,0.411,0.059,0.731,0.176,0.96c0.117,0.229,0.314,0.344,0.592,0.344c0.161,0,0.304-0.03,0.427-0.091
		c0.124-0.061,0.225-0.15,0.305-0.269v-2.043c-0.08-0.134-0.18-0.237-0.302-0.309s-0.263-0.107-0.421-0.107
		c-0.273,0-0.472,0.129-0.594,0.388c-0.121,0.259-0.183,0.602-0.183,1.028V33.027z"/>
	<path fill="#174B96" stroke="#3762DB" stroke-width="0.25" stroke-miterlimit="10" d="M88.033,34.85
		c-0.158,0.225-0.354,0.396-0.583,0.517s-0.489,0.181-0.778,0.181c-0.512,0-0.914-0.169-1.205-0.505
		c-0.291-0.337-0.436-0.858-0.436-1.566v-3.085h1.539v3.095c0,0.283,0.053,0.495,0.158,0.636c0.105,0.14,0.255,0.21,0.449,0.21
		c0.165,0,0.31-0.023,0.435-0.07s0.231-0.116,0.319-0.21v-3.66h1.545v5.058h-1.348L88.033,34.85z"/>
	<path fill="#174B96" stroke="#3762DB" stroke-width="0.25" stroke-miterlimit="10" d="M92.438,34.331
		c0.207,0,0.361-0.058,0.462-0.173s0.15-0.285,0.15-0.51h1.412l0.009,0.028c0.012,0.552-0.174,1.001-0.56,1.349
		s-0.876,0.521-1.474,0.521c-0.749,0-1.327-0.239-1.734-0.716c-0.406-0.477-0.609-1.095-0.609-1.855v-0.107
		c0-0.757,0.203-1.375,0.607-1.854c0.405-0.479,0.979-0.717,1.723-0.717c0.627,0,1.129,0.179,1.504,0.537
		c0.374,0.358,0.555,0.846,0.543,1.463l-0.009,0.028H93.05c0-0.24-0.052-0.436-0.155-0.587s-0.26-0.227-0.471-0.227
		c-0.293,0-0.497,0.123-0.614,0.369s-0.176,0.575-0.176,0.986v0.107c0,0.424,0.059,0.756,0.176,0.996
		C91.927,34.211,92.137,34.331,92.438,34.331z"/>
	<path fill="#174B96" stroke="#3762DB" stroke-width="0.25" stroke-miterlimit="10" d="M96.934,29.134v1.257h0.836v1.094h-0.836
		v2.318c0,0.181,0.035,0.312,0.107,0.391c0.071,0.079,0.168,0.119,0.289,0.119c0.098,0,0.175-0.003,0.231-0.01
		c0.056-0.006,0.128-0.019,0.217-0.037l0.11,1.169c-0.171,0.04-0.324,0.069-0.462,0.086c-0.138,0.018-0.299,0.026-0.484,0.026
		c-0.509,0-0.894-0.139-1.155-0.416c-0.263-0.277-0.394-0.717-0.394-1.318v-2.328h-0.694v-1.094h0.694v-1.257H96.934z"/>
	<path fill="#174B96" stroke="#3762DB" stroke-width="0.25" stroke-miterlimit="10" d="M98.153,32.873
		c0-0.761,0.21-1.38,0.631-1.858c0.42-0.479,1.007-0.717,1.759-0.717c0.756,0,1.344,0.238,1.764,0.717s0.631,1.098,0.631,1.858
		v0.098c0,0.764-0.211,1.384-0.631,1.86s-1.006,0.716-1.754,0.716c-0.759,0-1.349-0.239-1.769-0.716
		c-0.421-0.477-0.631-1.097-0.631-1.86V32.873z M99.697,32.971c0,0.424,0.064,0.757,0.195,0.998c0.129,0.241,0.35,0.362,0.66,0.362
		c0.301,0,0.518-0.121,0.648-0.364s0.196-0.575,0.196-0.996v-0.098c0-0.411-0.065-0.741-0.196-0.989
		c-0.131-0.247-0.351-0.371-0.658-0.371c-0.305,0-0.521,0.125-0.65,0.374c-0.131,0.249-0.195,0.578-0.195,0.986V32.971z"/>
</g>
</svg>
